<svg height="512pt" viewBox="0 0 512 512.00053" width="512pt" xmlns="http://www.w3.org/2000/svg"><path d="m236.957031 423.5625-37.503906-37.5c-3.78125-3.78125-5.273437-9.304688-3.894531-14.460938 4.128906-15.519531-.324219-32.191406-11.652344-43.515624-11.339844-11.34375-28-15.769532-43.5-11.664063-5.144531 1.421875-10.710938-.074219-14.476562-3.882813l-37.503907-37.503906-43.4375 43.441406 148.527344 148.527344zm0 0"/><path d="m270.789062 262.148438c5.828126-5.84375 5.828126-15.367188-.015624-21.214844-5.785157-5.816406-15.3125-5.90625-21.21875 0-5.84375 5.847656-5.84375 15.371094 0 21.214844 5.863281 5.863281 15.371093 5.890624 21.234374 0zm0 0"/><path d="m98.027344 498.828125c17.574218 17.570313 46.113281 17.554687 63.664062 0l10.609375-10.605469-148.527343-148.53125-10.609376 10.609375c-17.550781 17.554688-17.550781 46.09375 0 63.648438zm0 0"/><path d="m303.089844 240.933594h61.316406l2.660156-7.96875c8.058594-24.191406 21.832032-46.507813 39.855469-64.53125l25.824219-25.523438-63.65625-63.65625-25.816406 25.53125c-18.023438 18.023438-40.324219 31.8125-64.515626 39.871094l-7.691406 2.5625v61.449219c7.628906 1.914062 14.980469 5.089843 20.9375 11.050781 6.019532 6.027344 9.199219 13.484375 11.085938 21.214844zm0 0"/><path d="m205.125 306.867188c16.730469 16.734374 24.484375 40.46875 21.214844 63.648437l31.832031 31.832031 41.203125-41.472656c24.570312-24.554688 43.367188-54.988281 54.355469-87.96875l.65625-1.964844h-54.144531c-2.128907 4.421875-4.570313 8.761719-8.222657 12.425782-.015625 0-.015625 0-.015625 0-17.570312 17.570312-46.109375 17.554687-63.664062 0-17.550782-17.554688-17.550782-46.09375 0-63.648438 3.75-3.75 8.179687-6.289062 12.71875-8.4375v-54.070312l-2.242188.75c-.015625 0-.015625.011718-.015625.011718-32.949219 10.992188-63.367187 29.789063-87.953125 54.375l-41.199218 41.46875 31.828124 31.820313c23.121094-3.25 46.902344 4.484375 63.648438 21.230469zm0 0"/><path d="m487.113281 111.300781c27.425781-13.761719 33.457031-50.308593 11.675781-72.089843l-25.992187-26.003907c-21.683594-21.6875-58.289063-15.886719-72.085937 11.707031l-14.511719 29.015626 71.878906 71.878906zm0 0"/></svg>