<svg height="512pt" viewBox="-16 0 512 512" width="512pt" xmlns="http://www.w3.org/2000/svg"><path d="m30 512h420c16.570312 0 30-13.433594 30-30 0-16.570312-13.429688-30-30-30h-420c-16.570312 0-30 13.429688-30 30 0 16.566406 13.429688 30 30 30zm0 0"/><path d="m168.136719 54.402344-1.601563 5.597656h146.929688l-1.601563-5.597656c-9.636719-33.703125-37.835937-54.402344-71.847656-54.402344-34.03125 0-62.257813 20.714844-71.878906 54.402344zm0 0"/><path d="m140.824219 151h198.351562l-17.140625-61h-164.070312zm0 0"/><path d="m399.175781 361h-318.351562l-17.144531 61h352.640624zm0 0"/><path d="m89.394531 331h301.210938l-17.144531-60h-266.921876zm0 0"/><path d="m132.253906 181-17.144531 60h249.78125l-17.144531-60zm0 0"/></svg>