<svg height="512pt" viewBox="-16 0 512 512" width="512pt" xmlns="http://www.w3.org/2000/svg"><path d="m120 75h150v60h-150zm0 0"/><path d="m315 210c24.851562 0 45-20.148438 45-45v-120c0-24.851562-20.148438-45-45-45h-240c-24.851562 0-45 20.148438-45 45v120c0 24.851562 20.148438 45 45 45zm-225-150c0-8.289062 6.710938-15 15-15h180c8.289062 0 15 6.710938 15 15v90c0 8.289062-6.710938 15-15 15h-180c-8.289062 0-15-6.710938-15-15zm0 0"/><path d="m0 497c0 8.289062 6.710938 15 15 15h360c8.289062 0 15-6.710938 15-15s-6.710938-15-15-15h-45v-179.238281c17.421875 6.214843 30 22.707031 30 42.238281v60c0 24.8125 20.1875 45 45 45s45-20.1875 45-45v-165h15c8.289062 0 15-6.710938 15-15v-90c0-8.289062-6.710938-15-15-15-5.136719 0-10.152344.527344-15 1.519531v-16.519531c0-24.8125-20.1875-45-45-45-8.289062 0-15 6.710938-15 15s6.710938 15 15 15c8.277344 0 15 6.722656 15 15v30.382812c-18.105469 13.707032-30 35.214844-30 59.617188v30c0 8.289062 6.710938 15 15 15h15v165c0 8.277344-6.722656 15-15 15s-15-6.722656-15-15v-60c0-36.214844-25.808594-66.511719-60-73.480469v-31.519531h-270v242h-45c-8.289062 0-15 6.710938-15 15zm182.652344-220.523438c5.625-8.117187 19.070312-8.117187 24.695312 0 9.816406 14.222657 32.652344 49.347657 32.652344 68.523438 0 24.8125-20.1875 45-45 45s-45-20.1875-45-45c0-19.175781 22.835938-54.300781 32.652344-68.523438zm-47.652344 143.523438h120c8.289062 0 15 6.710938 15 15s-6.710938 15-15 15h-120c-8.289062 0-15-6.710938-15-15s6.710938-15 15-15zm0 0"/><path d="m195 360c8.261719 0 15-6.722656 15-15-.132812-4.601562-6.371094-17.664062-15-32.195312-8.644531 14.558593-14.882812 27.625-15 32.210937 0 8.261719 6.722656 14.984375 15 14.984375zm0 0"/></svg>