<svg height="512pt" viewBox="0 0 512 512" width="512pt" xmlns="http://www.w3.org/2000/svg"><path d="m256 0c-140.609375 0-256 115.390625-256 256s115.390625 256 256 256 256-115.390625 256-256-115.390625-256-256-256zm0 451c-107.519531 0-195-87.480469-195-195s87.480469-195 195-195 195 87.480469 195 195-87.480469 195-195 195zm0 0"/><path d="m286 211c0 16.570312-13.429688 30-30 30s-30-13.429688-30-30 13.429688-30 30-30 30 13.429688 30 30zm0 0"/><path d="m256 271c-26.574219 0-48.902344-17.476562-56.765625-41.449219-39.699219 4.328125-76.71875 12.640625-108.144531 24.726563-.007813.578125-.089844 1.140625-.089844 1.722656 0 17.335938 2.722656 34.039062 7.699219 49.75 24.546875-12.8125 48.582031-19.75 67.300781-19.75 15.660156 0 27.6875 4.425781 36.753906 13.550781 20.960938 21.050781 23.363282 63.777344 23.410156 118.605469 9.691407 1.78125 19.636719 2.84375 29.835938 2.84375 10.203125 0 20.148438-1.0625 29.847656-2.84375.035156-54.785156 2.425782-97.53125 23.398438-118.605469 9.066406-9.113281 21.078125-13.550781 36.753906-13.550781 18.472656 0 42.558594 6.671875 67.335938 19.652344 4.960937-15.679688 7.664062-32.351563 7.664062-49.652344 0-.570312-.082031-1.121094-.085938-1.6875-34.046874-13.128906-71.71875-20.777344-108.144531-24.769531-7.863281 23.980469-30.191406 41.457031-56.769531 41.457031zm0 0"/></svg>